<svg id="svg" version="1.1" xmlns="http://www.w3.org/2000/svg" xmlns:xlink="http://www.w3.org/1999/xlink" width="400" height="266.1818181818182" viewBox="0, 0, 400,266.1818181818182"><g id="svgg"><path id="path0" d="M133.955 5.305 C 133.149 5.584,132.046 5.888,131.503 5.979 C 130.960 6.070,130.197 6.410,129.808 6.734 C 127.847 8.368,126.759 9.490,126.478 10.168 C 126.307 10.581,126.073 10.919,125.959 10.919 C 125.625 10.919,125.167 12.502,125.158 13.688 C 125.153 14.289,124.913 15.439,124.624 16.245 C 124.330 17.063,123.981 19.062,123.832 20.772 C 123.524 24.311,123.327 25.519,123.029 25.703 C 122.731 25.888,122.531 27.301,122.259 31.158 C 122.110 33.259,121.867 34.790,121.600 35.309 C 121.344 35.806,121.061 37.486,120.883 39.567 C 120.722 41.457,120.418 43.508,120.209 44.123 C 119.774 45.407,119.328 48.541,119.316 50.406 C 119.311 51.106,119.061 52.364,118.761 53.202 C 118.408 54.186,118.113 56.003,117.931 58.322 C 117.766 60.413,117.484 62.236,117.257 62.679 C 117.037 63.109,116.748 64.908,116.593 66.807 C 116.443 68.658,116.086 70.952,115.800 71.904 C 115.514 72.856,115.173 75.095,115.042 76.879 C 114.911 78.663,114.618 80.566,114.391 81.108 C 113.956 82.149,113.455 85.808,113.451 87.964 C 113.450 88.703,113.207 89.771,112.876 90.494 C 112.442 91.443,112.254 92.555,112.097 95.115 C 111.962 97.320,111.744 98.768,111.466 99.306 C 111.195 99.829,110.939 101.457,110.759 103.792 C 110.593 105.950,110.269 108.079,109.972 108.970 C 109.694 109.802,109.388 111.660,109.291 113.098 C 109.194 114.536,108.888 116.431,108.610 117.310 C 108.333 118.189,107.987 120.406,107.843 122.237 C 107.685 124.225,107.364 126.191,107.045 127.118 C 106.707 128.101,106.426 129.909,106.279 132.045 C 106.150 133.931,105.871 135.831,105.648 136.352 C 105.428 136.864,105.104 138.842,104.927 140.746 C 104.750 142.650,104.455 144.569,104.273 145.011 C 103.851 146.031,103.606 147.672,103.342 151.248 C 103.210 153.031,102.963 154.414,102.679 154.963 C 102.383 155.534,102.141 156.966,101.982 159.078 C 101.725 162.501,101.534 163.746,101.198 164.181 C 100.904 164.562,100.684 166.129,100.422 169.711 C 100.296 171.434,100.076 172.992,99.933 173.173 C 99.526 173.690,99.351 174.698,99.069 178.151 C 98.924 179.918,98.628 181.790,98.411 182.311 C 97.987 183.324,97.470 186.864,97.470 188.748 C 97.470 189.378,97.223 190.580,96.920 191.418 C 96.542 192.467,96.295 194.085,96.129 196.603 C 95.966 199.073,95.756 200.462,95.484 200.878 C 95.233 201.261,94.935 202.943,94.694 205.340 C 94.481 207.456,94.119 209.700,93.890 210.326 C 93.661 210.953,93.360 212.990,93.223 214.854 C 93.065 216.980,92.776 218.788,92.446 219.707 C 91.778 221.567,91.386 227.671,91.845 229.063 C 92.013 229.571,92.752 230.579,93.488 231.305 L 94.827 232.623 121.115 232.756 C 135.574 232.830,147.552 232.847,147.734 232.795 C 148.239 232.652,148.553 231.100,148.849 227.281 C 149.008 225.235,149.301 223.371,149.560 222.754 C 149.812 222.152,150.101 220.361,150.236 218.560 C 150.366 216.830,150.651 214.985,150.871 214.460 C 151.090 213.936,151.450 211.875,151.670 209.882 C 151.890 207.889,152.237 205.899,152.441 205.459 C 152.645 205.020,152.953 202.923,153.124 200.799 C 153.346 198.056,153.555 196.806,153.844 196.485 C 154.130 196.168,154.283 195.291,154.353 193.555 C 154.472 190.646,154.886 187.778,155.402 186.285 C 155.605 185.699,155.895 183.772,156.046 182.003 C 156.198 180.222,156.499 178.427,156.721 177.982 C 156.948 177.529,157.238 175.764,157.387 173.935 C 157.716 169.914,157.885 168.737,158.335 167.350 C 158.529 166.749,158.833 164.712,159.010 162.823 C 159.187 160.933,159.488 159.148,159.678 158.855 C 159.868 158.562,160.156 157.490,160.318 156.474 C 160.520 155.207,160.769 154.516,161.111 154.276 C 161.386 154.084,161.751 153.500,161.923 152.979 C 162.116 152.395,162.482 151.937,162.876 151.788 C 163.227 151.654,163.515 151.367,163.515 151.151 C 163.515 150.934,164.055 150.519,164.714 150.227 C 165.373 149.936,165.912 149.583,165.912 149.444 C 165.912 148.832,167.871 148.750,185.752 148.613 C 202.796 148.483,204.726 148.425,205.326 148.025 C 205.815 147.700,206.628 147.576,208.389 147.558 C 211.880 147.524,216.291 147.032,216.947 146.603 C 217.270 146.393,218.864 146.115,220.629 145.962 C 222.869 145.767,223.978 145.548,224.587 145.177 C 225.088 144.872,226.218 144.586,227.362 144.475 C 228.554 144.359,229.520 144.108,229.892 143.819 C 230.222 143.561,231.246 143.219,232.167 143.058 C 233.088 142.898,234.135 142.535,234.494 142.253 C 234.852 141.971,235.794 141.659,236.587 141.560 C 237.505 141.445,238.200 141.191,238.500 140.859 C 238.759 140.573,239.442 140.263,240.016 140.171 C 240.591 140.079,241.385 139.731,241.781 139.398 C 242.177 139.065,242.947 138.709,243.494 138.607 C 244.040 138.504,244.634 138.211,244.813 137.954 C 244.993 137.698,245.541 137.400,246.030 137.293 C 246.520 137.185,247.161 136.821,247.455 136.483 C 247.749 136.145,248.377 135.796,248.850 135.707 C 249.323 135.618,249.970 135.247,250.286 134.883 C 250.603 134.519,251.021 134.221,251.215 134.221 C 251.409 134.221,251.829 133.921,252.147 133.555 C 252.466 133.189,252.903 132.889,253.118 132.889 C 253.334 132.889,253.920 132.530,254.420 132.091 C 254.920 131.651,255.461 131.292,255.622 131.292 C 255.782 131.292,256.109 130.992,256.349 130.626 C 256.589 130.260,256.949 129.960,257.148 129.960 C 257.348 129.960,257.707 129.660,257.947 129.294 C 258.187 128.928,258.520 128.625,258.686 128.620 C 259.605 128.595,268.176 119.987,268.176 119.090 C 268.176 118.950,268.475 118.640,268.842 118.400 C 269.208 118.160,269.507 117.790,269.507 117.577 C 269.507 117.364,269.807 116.993,270.173 116.753 C 270.539 116.513,270.839 116.172,270.839 115.994 C 270.839 115.817,271.129 115.400,271.483 115.067 C 271.838 114.734,272.281 114.084,272.469 113.622 C 272.656 113.161,273.025 112.626,273.289 112.435 C 273.553 112.244,273.768 111.932,273.768 111.742 C 273.768 111.552,274.128 111.021,274.567 110.561 C 275.007 110.101,275.366 109.502,275.366 109.229 C 275.366 108.956,275.655 108.421,276.008 108.040 C 276.361 107.659,276.731 106.977,276.831 106.525 C 276.930 106.073,277.300 105.414,277.654 105.060 C 278.007 104.707,278.296 104.122,278.296 103.761 C 278.296 103.399,278.580 102.765,278.927 102.351 C 279.274 101.937,279.650 101.178,279.762 100.666 C 279.874 100.153,280.182 99.582,280.446 99.397 C 280.728 99.199,281.004 98.548,281.113 97.823 C 281.215 97.143,281.570 96.186,281.902 95.697 C 282.235 95.207,282.588 94.216,282.687 93.495 C 282.786 92.774,283.020 92.125,283.207 92.053 C 283.555 91.920,284.154 89.957,284.154 88.953 C 284.154 88.645,284.406 88.054,284.713 87.638 C 285.101 87.113,285.347 86.207,285.520 84.666 C 285.659 83.418,285.938 82.260,286.157 82.018 C 286.600 81.529,287.084 79.273,287.084 77.701 C 287.084 77.121,287.262 76.329,287.480 75.940 C 288.114 74.806,288.658 71.988,288.310 71.636 C 287.913 71.236,287.998 60.467,288.414 58.464 C 288.646 57.344,288.652 56.269,288.437 54.246 C 288.279 52.753,288.038 49.935,287.902 47.985 C 287.715 45.312,287.536 44.262,287.174 43.724 C 286.909 43.331,286.549 42.180,286.374 41.166 C 286.185 40.080,285.890 39.230,285.655 39.099 C 285.436 38.976,285.121 38.225,284.956 37.430 C 284.791 36.635,284.441 35.708,284.178 35.369 C 283.915 35.031,283.561 34.330,283.393 33.813 C 283.224 33.295,282.847 32.667,282.555 32.417 C 282.263 32.167,282.024 31.743,282.024 31.474 C 282.024 31.205,281.734 30.713,281.380 30.380 C 281.025 30.047,280.591 29.427,280.415 29.002 C 280.239 28.577,279.993 28.229,279.868 28.229 C 279.743 28.229,279.470 27.899,279.260 27.497 C 278.552 26.133,275.546 22.907,272.568 20.315 C 271.690 19.551,270.698 18.682,270.363 18.384 C 270.029 18.086,269.656 17.843,269.535 17.843 C 269.413 17.843,268.882 17.499,268.354 17.080 C 267.826 16.660,267.030 16.166,266.586 15.982 C 266.142 15.798,265.779 15.552,265.779 15.434 C 265.779 15.317,265.330 15.077,264.780 14.901 C 264.231 14.725,263.542 14.371,263.249 14.115 C 262.956 13.858,262.237 13.495,261.651 13.310 C 261.065 13.124,260.304 12.753,259.960 12.485 C 259.615 12.217,258.896 11.922,258.362 11.829 C 257.827 11.736,256.971 11.387,256.458 11.054 C 255.945 10.721,254.935 10.373,254.212 10.282 C 253.489 10.191,252.614 9.931,252.268 9.704 C 251.921 9.477,250.715 9.127,249.587 8.926 C 248.459 8.725,247.069 8.363,246.498 8.122 C 245.927 7.880,244.309 7.565,242.903 7.421 C 241.497 7.277,239.567 6.934,238.615 6.659 C 237.392 6.305,235.205 6.070,231.158 5.856 C 228.009 5.689,224.834 5.427,224.101 5.273 C 221.288 4.682,135.664 4.713,133.955 5.305 " stroke="none" fill="#214d81" fill-rule="evenodd"></path><path id="path1" d="M0.000 133.156 L 0.000 266.312 200.000 266.312 L 400.000 266.312 400.000 133.156 L 400.000 0.000 200.000 0.000 L 0.000 0.000 0.000 133.156 M226.921 4.242 C 228.911 4.363,230.803 4.603,231.125 4.776 C 231.447 4.948,233.898 5.246,236.573 5.439 C 239.731 5.666,241.711 5.928,242.222 6.187 C 242.655 6.406,244.137 6.726,245.514 6.899 C 247.106 7.099,248.272 7.394,248.713 7.708 C 249.095 7.979,250.125 8.286,251.002 8.390 C 251.879 8.493,253.000 8.809,253.493 9.092 C 253.986 9.375,254.924 9.679,255.577 9.769 C 256.230 9.858,257.172 10.207,257.668 10.545 C 258.165 10.882,258.988 11.236,259.497 11.331 C 260.006 11.427,260.811 11.792,261.288 12.144 C 261.764 12.495,262.347 12.783,262.583 12.783 C 262.819 12.783,263.410 13.076,263.896 13.435 C 264.382 13.793,265.124 14.162,265.545 14.255 C 265.966 14.347,266.461 14.634,266.644 14.891 C 266.827 15.149,267.317 15.444,267.732 15.547 C 268.148 15.650,268.747 16.012,269.064 16.352 C 269.381 16.692,269.904 17.053,270.226 17.154 C 270.548 17.255,270.886 17.571,270.976 17.856 C 271.067 18.142,271.264 18.375,271.415 18.375 C 272.819 18.375,280.920 27.343,282.427 30.565 C 282.652 31.045,283.060 31.662,283.335 31.936 C 283.609 32.211,283.917 32.816,284.019 33.280 C 284.121 33.744,284.374 34.189,284.580 34.268 C 284.786 34.347,285.149 35.088,285.385 35.914 C 285.621 36.741,285.976 37.601,286.174 37.827 C 286.371 38.053,286.672 38.888,286.843 39.683 C 287.013 40.478,287.370 41.551,287.635 42.069 C 287.899 42.586,288.245 43.956,288.402 45.113 C 288.559 46.269,288.886 47.767,289.129 48.441 C 289.651 49.891,289.728 62.508,289.229 64.847 C 288.198 69.679,288.275 70.207,290.122 70.979 C 290.598 71.178,291.148 71.534,291.345 71.771 C 291.541 72.008,292.090 72.364,292.565 72.562 C 293.442 72.928,293.967 73.322,295.327 74.634 C 295.744 75.037,296.173 75.366,296.280 75.366 C 296.572 75.366,299.904 78.898,300.666 80.014 C 301.032 80.551,301.721 81.474,302.197 82.065 C 302.673 82.656,303.063 83.279,303.063 83.450 C 303.063 83.620,303.287 83.900,303.562 84.072 C 303.836 84.243,304.137 84.688,304.231 85.061 C 304.324 85.434,304.685 86.157,305.032 86.669 C 305.379 87.180,305.743 88.025,305.841 88.547 C 305.939 89.069,306.241 89.882,306.513 90.354 C 306.784 90.826,307.093 91.745,307.198 92.398 C 307.303 93.050,307.600 94.009,307.858 94.528 C 308.116 95.048,308.469 96.431,308.642 97.603 C 308.814 98.775,309.130 100.410,309.344 101.237 C 309.952 103.592,309.935 116.330,309.320 118.467 C 309.124 119.149,308.836 120.905,308.681 122.370 C 308.526 123.835,308.152 125.919,307.850 127.001 C 307.548 128.084,307.188 129.859,307.050 130.947 C 306.912 132.034,306.627 133.306,306.416 133.772 C 306.205 134.239,305.852 135.459,305.632 136.485 C 305.154 138.711,304.132 141.708,303.357 143.153 C 303.049 143.729,302.795 144.381,302.794 144.603 C 302.792 144.825,302.513 145.606,302.173 146.338 C 301.833 147.071,301.473 148.083,301.372 148.589 C 301.272 149.095,300.967 149.754,300.694 150.054 C 300.422 150.354,300.060 151.034,299.890 151.566 C 299.720 152.097,299.352 152.739,299.073 152.991 C 298.794 153.244,298.492 153.785,298.402 154.194 C 298.312 154.603,298.010 155.145,297.731 155.397 C 297.452 155.650,297.085 156.292,296.915 156.823 C 296.745 157.355,296.389 158.029,296.123 158.322 C 295.858 158.615,295.510 159.154,295.350 159.521 C 295.012 160.296,293.987 161.820,293.293 162.581 C 292.661 163.273,291.087 165.174,290.413 166.059 C 289.899 166.733,287.135 169.762,286.537 170.306 C 286.376 170.453,285.924 170.881,285.532 171.257 C 283.990 172.740,279.980 175.976,279.161 176.398 C 278.685 176.644,278.296 176.963,278.296 177.108 C 278.296 177.253,277.876 177.572,277.364 177.817 C 276.851 178.061,276.431 178.344,276.431 178.445 C 276.431 178.547,275.851 178.879,275.141 179.185 C 274.431 179.490,273.698 179.924,273.511 180.149 C 273.324 180.375,273.022 180.559,272.841 180.559 C 272.659 180.559,272.077 180.854,271.547 181.213 C 271.017 181.573,270.116 181.993,269.544 182.147 C 268.972 182.301,268.354 182.609,268.170 182.830 C 267.986 183.052,267.316 183.364,266.682 183.524 C 266.048 183.684,265.390 183.982,265.220 184.187 C 265.049 184.392,264.237 184.753,263.414 184.989 C 262.591 185.226,261.585 185.589,261.178 185.796 C 260.772 186.003,259.778 186.295,258.970 186.444 C 258.162 186.593,257.117 186.940,256.647 187.214 C 256.177 187.488,254.856 187.840,253.711 187.997 C 252.567 188.153,251.387 188.412,251.090 188.571 C 250.793 188.730,248.553 189.082,246.114 189.353 C 243.674 189.624,240.959 190.045,240.080 190.287 C 238.775 190.646,236.628 190.753,228.362 190.869 L 218.242 191.012 216.378 191.926 C 214.011 193.086,212.708 194.021,212.436 194.753 C 212.318 195.070,212.058 195.511,211.858 195.734 C 211.346 196.303,210.167 200.650,209.855 203.119 C 209.427 206.511,208.985 208.900,208.722 209.243 C 208.586 209.420,208.360 211.326,208.218 213.478 C 208.054 215.984,207.817 217.670,207.560 218.167 C 207.339 218.594,206.983 220.523,206.768 222.454 C 206.552 224.385,206.201 226.446,205.987 227.033 C 205.773 227.620,205.487 229.598,205.352 231.427 C 205.216 233.257,204.917 235.353,204.687 236.085 C 204.456 236.818,204.073 239.214,203.834 241.411 C 203.596 243.609,203.247 245.708,203.058 246.076 C 202.869 246.445,202.578 248.108,202.411 249.773 C 202.245 251.437,201.928 253.232,201.707 253.761 C 201.486 254.290,201.187 255.249,201.043 255.892 C 200.623 257.766,198.809 259.857,196.376 261.271 L 194.807 262.184 171.771 262.264 C 145.263 262.357,147.510 262.514,145.417 260.421 L 143.808 258.812 143.808 255.971 C 143.808 253.547,144.338 249.386,144.727 248.757 C 144.792 248.652,144.986 246.956,145.159 244.988 C 145.338 242.941,145.672 240.899,145.940 240.213 C 146.588 238.553,146.910 234.762,146.430 234.452 C 146.233 234.325,135.107 234.219,121.704 234.215 L 97.337 234.210 95.606 233.575 C 93.574 232.830,91.465 230.987,91.189 229.715 C 91.091 229.264,90.846 228.658,90.645 228.370 C 90.171 227.688,90.178 225.875,90.659 224.723 C 90.867 224.224,91.170 222.402,91.330 220.674 C 91.491 218.945,91.800 217.108,92.016 216.590 C 92.233 216.071,92.537 213.966,92.691 211.910 C 92.861 209.655,93.172 207.581,93.476 206.682 C 93.752 205.863,94.109 203.837,94.269 202.179 C 94.428 200.522,94.729 198.664,94.936 198.051 C 95.143 197.439,95.443 195.320,95.603 193.342 C 95.762 191.365,96.132 188.932,96.426 187.937 C 96.720 186.941,97.074 184.844,97.213 183.276 C 97.351 181.709,97.706 179.588,98.000 178.563 C 98.294 177.538,98.535 176.183,98.535 175.551 C 98.535 174.067,99.053 170.709,99.376 170.100 C 99.514 169.840,99.796 167.698,100.003 165.341 C 100.252 162.512,100.517 160.845,100.784 160.438 C 101.031 160.061,101.298 158.602,101.471 156.675 C 101.627 154.945,101.979 152.570,102.254 151.398 C 102.528 150.226,102.868 147.871,103.008 146.164 C 103.163 144.292,103.438 142.712,103.703 142.181 C 103.964 141.659,104.241 140.102,104.384 138.360 C 104.517 136.743,104.861 134.341,105.149 133.023 C 105.436 131.704,105.753 129.507,105.853 128.140 C 105.954 126.773,106.260 124.970,106.535 124.133 C 106.810 123.296,107.152 121.163,107.295 119.393 C 107.441 117.593,107.748 115.722,107.992 115.145 C 108.244 114.550,108.591 112.369,108.813 109.987 C 109.024 107.716,109.368 105.439,109.577 104.927 C 109.786 104.414,110.078 102.557,110.227 100.799 C 110.379 99.003,110.723 96.962,111.013 96.138 C 111.350 95.182,111.596 93.519,111.722 91.345 C 111.845 89.222,112.084 87.582,112.382 86.818 C 112.639 86.158,112.937 84.421,113.045 82.956 C 113.153 81.491,113.471 79.549,113.752 78.640 C 114.033 77.730,114.431 75.154,114.638 72.914 C 114.844 70.674,115.188 68.422,115.402 67.909 C 115.615 67.397,115.935 65.419,116.112 63.515 C 116.290 61.611,116.595 59.574,116.792 58.988 C 116.988 58.402,117.276 56.667,117.432 55.131 C 117.589 53.596,117.950 51.499,118.235 50.471 C 118.520 49.443,118.869 47.020,119.011 45.088 C 119.153 43.155,119.441 41.177,119.650 40.693 C 119.860 40.210,120.227 38.160,120.466 36.138 C 120.706 34.117,121.010 32.259,121.142 32.010 C 121.432 31.467,121.969 27.259,121.970 25.527 C 121.970 24.847,122.204 23.529,122.489 22.598 C 122.774 21.667,123.147 19.587,123.318 17.976 C 123.489 16.365,123.841 14.507,124.099 13.848 C 124.357 13.189,124.653 12.147,124.755 11.533 C 124.858 10.919,125.120 10.269,125.338 10.088 C 125.556 9.907,125.909 9.421,126.123 9.007 C 126.337 8.594,126.680 8.256,126.886 8.256 C 127.092 8.256,127.338 8.015,127.431 7.720 C 127.525 7.426,127.952 7.003,128.381 6.781 C 128.810 6.559,129.161 6.270,129.161 6.139 C 129.161 6.008,129.611 5.758,130.160 5.584 C 130.709 5.409,131.412 5.108,131.723 4.914 C 132.033 4.719,132.693 4.444,133.188 4.302 C 134.307 3.980,221.709 3.924,226.921 4.242 " stroke="none" fill="#f4f4f4" fill-rule="evenodd"></path><path id="path2" d="M133.156 4.962 C 132.643 5.190,131.684 5.541,131.025 5.742 C 129.777 6.123,126.829 8.583,126.097 9.854 C 125.368 11.119,124.900 12.235,124.900 12.709 C 124.900 12.970,124.658 14.023,124.363 15.047 C 124.068 16.072,123.702 18.109,123.551 19.574 C 123.400 21.039,123.052 23.256,122.778 24.501 C 122.504 25.746,122.150 28.152,121.991 29.847 C 121.833 31.543,121.529 33.520,121.316 34.241 C 121.103 34.963,120.797 36.691,120.637 38.083 C 120.476 39.474,120.113 41.811,119.829 43.276 C 119.545 44.740,119.192 47.137,119.046 48.602 C 118.899 50.067,118.605 51.833,118.391 52.527 C 118.178 53.221,117.871 55.018,117.708 56.521 C 117.546 58.024,117.190 60.333,116.918 61.652 C 116.646 62.970,116.341 64.948,116.240 66.046 C 116.139 67.144,115.833 69.072,115.560 70.329 C 115.288 71.587,114.941 73.933,114.789 75.543 C 114.637 77.152,114.334 79.070,114.117 79.804 C 113.899 80.537,113.546 82.626,113.334 84.444 C 113.121 86.263,112.700 88.858,112.399 90.211 C 112.097 91.564,111.851 93.285,111.851 94.036 C 111.851 94.786,111.566 96.615,111.218 98.100 C 110.869 99.584,110.447 102.149,110.279 103.799 C 110.111 105.448,109.803 107.486,109.595 108.326 C 109.387 109.166,109.095 111.116,108.946 112.659 C 108.798 114.202,108.503 115.880,108.292 116.387 C 108.082 116.895,107.761 118.928,107.579 120.905 C 107.398 122.883,107.081 124.980,106.875 125.566 C 106.669 126.152,106.324 128.249,106.107 130.226 C 105.891 132.204,105.541 134.481,105.331 135.286 C 105.120 136.092,104.820 138.027,104.665 139.587 C 104.509 141.146,104.215 143.004,104.011 143.715 C 103.571 145.247,103.408 146.278,103.065 149.699 C 102.923 151.109,102.621 152.966,102.394 153.827 C 102.167 154.688,101.864 156.591,101.720 158.056 C 101.577 159.521,101.282 161.378,101.065 162.184 C 100.848 162.989,100.540 164.967,100.379 166.578 C 100.219 168.189,99.861 170.586,99.584 171.904 C 99.306 173.222,98.949 175.439,98.791 176.831 C 98.632 178.222,98.329 180.080,98.118 180.959 C 97.906 181.838,97.548 184.043,97.321 185.861 C 97.094 187.678,96.734 189.835,96.520 190.654 C 96.306 191.473,96.011 193.510,95.864 195.180 C 95.717 196.850,95.369 199.127,95.091 200.240 C 94.814 201.353,94.507 203.162,94.410 204.261 C 94.313 205.360,94.010 207.229,93.736 208.416 C 93.462 209.603,93.112 211.999,92.957 213.742 C 92.803 215.485,92.501 217.485,92.286 218.188 C 91.559 220.565,90.972 226.841,91.320 228.513 C 91.700 230.338,93.784 232.612,95.501 233.074 C 96.907 233.453,146.774 233.532,146.649 233.156 C 146.591 232.982,137.582 232.843,120.694 232.756 L 94.827 232.623 93.488 231.305 C 92.752 230.579,92.013 229.571,91.845 229.063 C 91.386 227.671,91.778 221.567,92.446 219.707 C 92.776 218.788,93.065 216.980,93.223 214.854 C 93.360 212.990,93.661 210.953,93.890 210.326 C 94.119 209.700,94.481 207.456,94.694 205.340 C 94.935 202.943,95.233 201.261,95.484 200.878 C 95.756 200.462,95.966 199.073,96.129 196.603 C 96.295 194.085,96.542 192.467,96.920 191.418 C 97.223 190.580,97.470 189.378,97.470 188.748 C 97.470 186.864,97.987 183.324,98.411 182.311 C 98.628 181.790,98.924 179.918,99.069 178.151 C 99.351 174.698,99.526 173.690,99.933 173.173 C 100.076 172.992,100.296 171.434,100.422 169.711 C 100.684 166.129,100.904 164.562,101.198 164.181 C 101.534 163.746,101.725 162.501,101.982 159.078 C 102.141 156.966,102.383 155.534,102.679 154.963 C 102.963 154.414,103.210 153.031,103.342 151.248 C 103.606 147.672,103.851 146.031,104.273 145.011 C 104.455 144.569,104.750 142.650,104.927 140.746 C 105.104 138.842,105.428 136.864,105.648 136.352 C 105.871 135.831,106.150 133.931,106.279 132.045 C 106.426 129.909,106.707 128.101,107.045 127.118 C 107.364 126.191,107.685 124.225,107.843 122.237 C 107.987 120.406,108.333 118.189,108.610 117.310 C 108.888 116.431,109.194 114.536,109.291 113.098 C 109.388 111.660,109.694 109.802,109.972 108.970 C 110.269 108.079,110.593 105.950,110.759 103.792 C 110.939 101.457,111.195 99.829,111.466 99.306 C 111.744 98.768,111.962 97.320,112.097 95.115 C 112.254 92.555,112.442 91.443,112.876 90.494 C 113.207 89.771,113.450 88.703,113.451 87.964 C 113.455 85.808,113.956 82.149,114.391 81.108 C 114.618 80.566,114.911 78.663,115.042 76.879 C 115.173 75.095,115.514 72.856,115.800 71.904 C 116.086 70.952,116.443 68.658,116.593 66.807 C 116.748 64.908,117.037 63.109,117.257 62.679 C 117.484 62.236,117.766 60.413,117.931 58.322 C 118.113 56.003,118.408 54.186,118.761 53.202 C 119.061 52.364,119.311 51.106,119.316 50.406 C 119.328 48.541,119.774 45.407,120.209 44.123 C 120.418 43.508,120.722 41.457,120.883 39.567 C 121.061 37.486,121.344 35.806,121.600 35.309 C 121.867 34.790,122.110 33.259,122.259 31.158 C 122.531 27.301,122.731 25.888,123.029 25.703 C 123.327 25.519,123.524 24.311,123.832 20.772 C 123.981 19.062,124.330 17.063,124.624 16.245 C 124.913 15.439,125.153 14.289,125.158 13.688 C 125.167 12.502,125.625 10.919,125.959 10.919 C 126.073 10.919,126.307 10.581,126.478 10.168 C 126.759 9.490,127.847 8.368,129.808 6.734 C 130.197 6.410,130.960 6.069,131.503 5.977 C 132.046 5.885,133.214 5.573,134.099 5.284 C 135.960 4.677,221.212 4.667,224.101 5.273 C 224.834 5.427,228.009 5.689,231.158 5.856 C 235.205 6.070,237.392 6.305,238.615 6.659 C 239.567 6.934,241.497 7.277,242.903 7.421 C 244.309 7.565,245.927 7.880,246.498 8.122 C 247.069 8.363,248.459 8.725,249.587 8.926 C 250.715 9.127,251.921 9.477,252.268 9.704 C 252.614 9.931,253.489 10.191,254.212 10.282 C 254.935 10.373,255.945 10.721,256.458 11.054 C 256.971 11.387,257.827 11.736,258.362 11.829 C 258.896 11.922,259.615 12.217,259.960 12.485 C 260.304 12.753,261.065 13.124,261.651 13.310 C 262.237 13.495,262.956 13.858,263.249 14.115 C 263.542 14.371,264.231 14.725,264.780 14.901 C 265.330 15.077,265.779 15.317,265.779 15.434 C 265.779 15.552,266.142 15.798,266.586 15.982 C 267.030 16.166,267.826 16.660,268.354 17.080 C 268.882 17.499,269.413 17.843,269.535 17.843 C 269.656 17.843,270.029 18.086,270.363 18.384 C 270.698 18.682,271.690 19.551,272.568 20.315 C 275.546 22.907,278.552 26.133,279.260 27.497 C 279.470 27.899,279.743 28.229,279.868 28.229 C 279.993 28.229,280.239 28.577,280.415 29.002 C 280.591 29.427,281.025 30.047,281.380 30.380 C 281.734 30.713,282.024 31.205,282.024 31.474 C 282.024 31.743,282.263 32.167,282.555 32.417 C 282.847 32.667,283.224 33.295,283.393 33.813 C 283.561 34.330,283.915 35.031,284.178 35.369 C 284.441 35.708,284.791 36.635,284.956 37.430 C 285.121 38.225,285.436 38.976,285.655 39.099 C 285.890 39.230,286.185 40.080,286.374 41.166 C 286.549 42.180,286.909 43.331,287.174 43.724 C 287.536 44.262,287.715 45.312,287.902 47.985 C 288.038 49.935,288.279 52.758,288.439 54.256 C 288.643 56.186,288.645 57.366,288.446 58.297 C 288.033 60.223,287.726 70.573,288.082 70.573 C 288.255 70.573,288.313 70.184,288.233 69.574 C 288.160 69.025,288.356 65.907,288.668 62.647 C 289.144 57.678,289.192 56.234,288.965 53.725 C 288.450 48.038,287.913 44.263,287.472 43.239 C 287.228 42.673,286.856 41.492,286.645 40.614 C 286.434 39.736,286.096 38.766,285.895 38.459 C 285.694 38.152,285.389 37.373,285.217 36.727 C 285.045 36.081,284.744 35.373,284.548 35.153 C 284.353 34.933,283.943 34.214,283.638 33.555 C 283.333 32.896,282.725 31.818,282.286 31.158 C 281.848 30.499,281.280 29.619,281.024 29.202 C 279.422 26.591,276.201 22.988,272.834 20.041 C 271.957 19.272,270.999 18.434,270.706 18.177 C 269.843 17.421,267.677 15.979,267.404 15.979 C 267.265 15.979,266.813 15.698,266.399 15.355 C 265.985 15.013,265.251 14.598,264.768 14.433 C 264.285 14.268,263.580 13.890,263.201 13.591 C 262.822 13.293,262.335 13.049,262.121 13.049 C 261.906 13.049,261.173 12.758,260.492 12.402 C 258.136 11.170,256.151 10.329,254.776 9.980 C 254.017 9.788,252.856 9.445,252.197 9.217 C 251.538 8.990,250.250 8.621,249.334 8.397 C 248.419 8.173,246.981 7.816,246.138 7.605 C 243.084 6.837,236.807 5.843,233.422 5.590 C 231.518 5.448,228.282 5.151,226.232 4.930 C 220.531 4.316,134.545 4.345,133.156 4.962 " stroke="none" fill="#848ca4" fill-rule="evenodd"></path><path id="path3" d="M288.239 70.722 C 288.143 70.973,288.182 71.364,288.326 71.592 C 288.633 72.079,288.096 74.839,287.480 75.940 C 287.262 76.329,287.084 77.121,287.084 77.701 C 287.084 79.273,286.600 81.529,286.157 82.018 C 285.938 82.260,285.659 83.418,285.520 84.666 C 285.347 86.207,285.101 87.113,284.713 87.638 C 284.406 88.054,284.154 88.645,284.154 88.953 C 284.154 89.957,283.555 91.920,283.207 92.053 C 283.020 92.125,282.786 92.774,282.687 93.495 C 282.588 94.216,282.235 95.207,281.902 95.697 C 281.570 96.186,281.215 97.143,281.113 97.823 C 281.004 98.548,280.728 99.199,280.446 99.397 C 280.182 99.582,279.874 100.153,279.762 100.666 C 279.650 101.178,279.274 101.937,278.927 102.351 C 278.580 102.765,278.296 103.399,278.296 103.761 C 278.296 104.122,278.007 104.707,277.654 105.060 C 277.300 105.414,276.930 106.073,276.831 106.525 C 276.731 106.977,276.361 107.659,276.008 108.040 C 275.655 108.421,275.366 108.956,275.366 109.229 C 275.366 109.502,275.007 110.101,274.567 110.561 C 274.128 111.021,273.768 111.552,273.768 111.742 C 273.768 111.932,273.553 112.244,273.289 112.435 C 273.025 112.626,272.656 113.161,272.469 113.622 C 272.281 114.084,271.838 114.734,271.483 115.067 C 271.129 115.400,270.839 115.817,270.839 115.994 C 270.839 116.172,270.539 116.513,270.173 116.753 C 269.807 116.993,269.507 117.364,269.507 117.577 C 269.507 117.790,269.208 118.160,268.842 118.400 C 268.475 118.640,268.176 118.950,268.176 119.090 C 268.176 119.987,259.605 128.595,258.686 128.620 C 258.520 128.625,258.187 128.928,257.947 129.294 C 257.707 129.660,257.348 129.960,257.148 129.960 C 256.949 129.960,256.589 130.260,256.349 130.626 C 256.109 130.992,255.782 131.292,255.622 131.292 C 255.461 131.292,254.920 131.651,254.420 132.091 C 253.920 132.530,253.334 132.889,253.118 132.889 C 252.903 132.889,252.466 133.189,252.147 133.555 C 251.829 133.921,251.409 134.221,251.215 134.221 C 251.021 134.221,250.603 134.519,250.286 134.883 C 249.970 135.247,249.323 135.618,248.850 135.707 C 248.377 135.796,247.749 136.145,247.455 136.483 C 247.161 136.821,246.520 137.185,246.030 137.293 C 245.541 137.400,244.993 137.698,244.813 137.954 C 244.634 138.211,244.040 138.504,243.494 138.607 C 242.947 138.709,242.177 139.065,241.781 139.398 C 241.385 139.731,240.591 140.079,240.016 140.171 C 239.442 140.263,238.759 140.573,238.500 140.859 C 238.200 141.191,237.505 141.445,236.587 141.560 C 235.794 141.659,234.852 141.971,234.494 142.253 C 234.135 142.535,233.088 142.898,232.167 143.058 C 231.246 143.219,230.222 143.561,229.892 143.819 C 229.520 144.108,228.554 144.359,227.362 144.475 C 226.218 144.586,225.088 144.872,224.587 145.177 C 223.978 145.548,222.869 145.767,220.629 145.962 C 218.864 146.115,217.270 146.393,216.947 146.603 C 216.291 147.032,211.880 147.524,208.389 147.558 C 206.628 147.576,205.815 147.700,205.326 148.025 C 204.726 148.425,202.796 148.483,185.752 148.613 C 167.871 148.750,165.912 148.832,165.912 149.444 C 165.912 149.583,165.373 149.936,164.714 150.227 C 164.055 150.519,163.515 150.934,163.515 151.151 C 163.515 151.367,163.227 151.654,162.876 151.788 C 162.482 151.937,162.116 152.395,161.923 152.979 C 161.751 153.500,161.386 154.084,161.111 154.276 C 160.769 154.516,160.520 155.207,160.318 156.474 C 160.156 157.490,159.868 158.562,159.678 158.855 C 159.488 159.148,159.187 160.933,159.010 162.823 C 158.833 164.712,158.529 166.749,158.335 167.350 C 157.885 168.737,157.716 169.914,157.387 173.935 C 157.238 175.764,156.948 177.529,156.721 177.982 C 156.499 178.427,156.198 180.222,156.046 182.003 C 155.895 183.772,155.605 185.699,155.402 186.285 C 154.886 187.778,154.472 190.646,154.353 193.555 C 154.283 195.291,154.130 196.168,153.844 196.485 C 153.555 196.806,153.346 198.056,153.124 200.799 C 152.953 202.923,152.645 205.020,152.441 205.459 C 152.237 205.899,151.890 207.889,151.670 209.882 C 151.450 211.875,151.090 213.936,150.871 214.460 C 150.651 214.985,150.366 216.830,150.236 218.560 C 150.101 220.361,149.812 222.152,149.560 222.754 C 149.301 223.371,149.008 225.235,148.849 227.281 C 148.501 231.766,148.255 232.699,147.365 232.923 C 146.748 233.078,146.696 233.189,146.834 234.057 C 147.029 235.284,146.587 239.587,146.083 241.373 C 145.870 242.127,145.516 244.422,145.295 246.474 C 145.075 248.526,144.699 250.743,144.459 251.400 C 143.040 255.296,143.892 258.896,146.772 261.176 L 147.878 262.051 170.969 262.051 L 194.061 262.051 195.868 261.092 C 197.519 260.216,198.202 259.649,199.930 257.721 C 200.257 257.356,200.706 256.293,200.926 255.359 C 201.147 254.426,201.497 253.112,201.703 252.440 C 201.910 251.769,202.158 250.391,202.255 249.378 C 202.352 248.365,202.711 246.099,203.053 244.341 C 203.395 242.583,203.753 240.091,203.849 238.803 C 203.946 237.515,204.243 235.777,204.509 234.942 C 204.776 234.106,205.080 232.164,205.185 230.626 C 205.290 229.088,205.600 226.931,205.873 225.832 C 206.147 224.734,206.498 222.636,206.654 221.172 C 206.809 219.707,207.114 217.850,207.332 217.044 C 207.549 216.238,207.902 213.958,208.115 211.977 C 208.329 209.996,208.671 207.899,208.876 207.317 C 209.081 206.735,209.390 204.820,209.563 203.063 C 209.894 199.710,210.802 196.532,211.834 195.121 C 212.599 194.074,214.458 192.284,214.785 192.280 C 214.934 192.278,215.533 191.947,216.117 191.545 L 217.177 190.812 226.498 190.618 C 231.625 190.512,236.598 190.306,237.550 190.161 C 238.502 190.016,240.959 189.726,243.009 189.516 C 245.060 189.306,247.457 188.947,248.336 188.719 C 249.214 188.491,251.034 188.127,252.380 187.909 C 253.725 187.692,255.168 187.338,255.587 187.121 C 256.005 186.905,257.115 186.589,258.053 186.419 C 258.991 186.249,260.209 185.879,260.761 185.598 C 261.312 185.317,261.927 185.087,262.128 185.087 C 262.329 185.087,263.083 184.786,263.803 184.418 C 264.524 184.050,265.593 183.619,266.178 183.461 C 266.764 183.302,267.429 183.007,267.656 182.805 C 267.883 182.603,268.596 182.251,269.241 182.024 C 269.886 181.797,270.599 181.449,270.826 181.251 C 271.053 181.053,271.778 180.633,272.437 180.317 C 273.096 180.002,274.115 179.453,274.700 179.097 C 275.286 178.741,276.125 178.249,276.565 178.003 C 277.004 177.757,277.738 177.243,278.197 176.861 C 278.655 176.478,279.734 175.664,280.594 175.051 C 284.510 172.261,294.008 162.228,294.008 160.881 C 294.008 160.755,294.197 160.495,294.427 160.303 C 294.657 160.112,295.107 159.489,295.426 158.920 C 295.744 158.350,296.334 157.323,296.737 156.638 C 297.139 155.953,297.707 154.899,297.999 154.296 C 298.290 153.693,298.702 153.056,298.912 152.882 C 299.123 152.707,299.478 152.028,299.701 151.375 C 299.923 150.721,300.352 149.873,300.652 149.491 C 300.953 149.109,301.198 148.531,301.198 148.206 C 301.198 147.882,301.484 147.079,301.833 146.422 C 302.183 145.765,302.557 144.818,302.665 144.318 C 302.773 143.818,303.147 142.844,303.495 142.153 C 303.843 141.462,304.128 140.650,304.128 140.350 C 304.128 140.049,304.411 139.107,304.757 138.256 C 305.102 137.405,305.473 136.119,305.579 135.398 C 305.686 134.677,305.998 133.549,306.272 132.889 C 306.547 132.230,306.903 130.672,307.065 129.427 C 307.226 128.182,307.585 126.385,307.861 125.433 C 308.138 124.481,308.496 122.324,308.658 120.639 C 308.819 118.955,309.069 116.378,309.212 114.913 C 309.593 111.033,309.521 104.682,309.074 102.580 C 308.865 101.600,308.625 99.929,308.540 98.866 C 308.454 97.803,308.196 96.425,307.965 95.803 C 307.734 95.182,307.366 93.955,307.148 93.076 C 306.929 92.197,306.524 91.059,306.248 90.546 C 305.972 90.033,305.621 89.118,305.468 88.513 C 305.315 87.908,305.018 87.270,304.809 87.097 C 304.600 86.923,304.348 86.400,304.250 85.934 C 304.152 85.468,303.804 84.787,303.478 84.421 C 303.151 84.055,302.412 83.036,301.835 82.157 C 300.381 79.942,300.036 79.532,297.520 77.025 C 295.454 74.966,294.469 74.180,292.264 72.827 C 291.778 72.529,291.154 72.080,290.876 71.829 C 290.598 71.577,290.247 71.372,290.095 71.372 C 289.943 71.372,289.503 71.123,289.116 70.819 C 288.471 70.312,288.400 70.304,288.239 70.722 " stroke="none" fill="#5fa5cc" fill-rule="evenodd"></path><path id="path4" d="M133.188 4.302 C 132.693 4.444,132.033 4.719,131.723 4.914 C 131.412 5.108,130.709 5.409,130.160 5.584 C 129.611 5.758,129.161 6.008,129.161 6.139 C 129.161 6.270,128.810 6.559,128.381 6.781 C 127.952 7.003,127.525 7.426,127.431 7.720 C 127.338 8.015,127.092 8.256,126.886 8.256 C 126.680 8.256,126.337 8.594,126.123 9.007 C 125.909 9.421,125.556 9.907,125.338 10.088 C 125.120 10.269,124.858 10.919,124.755 11.533 C 124.653 12.147,124.357 13.189,124.099 13.848 C 123.841 14.507,123.489 16.365,123.318 17.976 C 123.147 19.587,122.774 21.667,122.489 22.598 C 122.204 23.529,121.970 24.847,121.970 25.527 C 121.969 27.259,121.432 31.467,121.142 32.010 C 121.010 32.259,120.706 34.117,120.466 36.138 C 120.227 38.160,119.860 40.210,119.650 40.693 C 119.441 41.177,119.153 43.155,119.011 45.088 C 118.869 47.020,118.520 49.443,118.235 50.471 C 117.950 51.499,117.589 53.596,117.432 55.131 C 117.276 56.667,116.988 58.402,116.792 58.988 C 116.595 59.574,116.290 61.611,116.112 63.515 C 115.935 65.419,115.615 67.397,115.402 67.909 C 115.188 68.422,114.844 70.674,114.638 72.914 C 114.431 75.154,114.033 77.730,113.752 78.640 C 113.471 79.549,113.153 81.491,113.045 82.956 C 112.937 84.421,112.639 86.158,112.382 86.818 C 112.084 87.582,111.845 89.222,111.722 91.345 C 111.596 93.519,111.350 95.182,111.013 96.138 C 110.723 96.962,110.379 99.003,110.227 100.799 C 110.078 102.557,109.786 104.414,109.577 104.927 C 109.368 105.439,109.024 107.716,108.813 109.987 C 108.591 112.369,108.244 114.550,107.992 115.145 C 107.748 115.722,107.441 117.593,107.295 119.393 C 107.152 121.163,106.810 123.296,106.535 124.133 C 106.260 124.970,105.954 126.773,105.853 128.140 C 105.753 129.507,105.436 131.704,105.149 133.023 C 104.861 134.341,104.517 136.743,104.384 138.360 C 104.241 140.102,103.964 141.659,103.703 142.181 C 103.438 142.712,103.163 144.292,103.008 146.164 C 102.868 147.871,102.528 150.226,102.254 151.398 C 101.979 152.570,101.627 154.945,101.471 156.675 C 101.298 158.602,101.031 160.061,100.784 160.438 C 100.517 160.845,100.252 162.512,100.003 165.341 C 99.796 167.698,99.514 169.840,99.376 170.100 C 99.053 170.709,98.535 174.067,98.535 175.551 C 98.535 176.183,98.294 177.538,98.000 178.563 C 97.706 179.588,97.351 181.709,97.213 183.276 C 97.074 184.844,96.720 186.941,96.426 187.937 C 96.132 188.932,95.762 191.365,95.603 193.342 C 95.443 195.320,95.143 197.439,94.936 198.051 C 94.729 198.664,94.428 200.522,94.269 202.179 C 94.109 203.837,93.752 205.863,93.476 206.682 C 93.172 207.581,92.861 209.655,92.691 211.910 C 92.537 213.966,92.233 216.071,92.016 216.590 C 91.800 217.108,91.491 218.945,91.330 220.674 C 91.170 222.402,90.867 224.224,90.659 224.723 C 90.178 225.875,90.171 227.688,90.645 228.370 C 90.846 228.658,91.091 229.264,91.189 229.715 C 91.465 230.987,93.574 232.830,95.606 233.575 L 97.337 234.210 121.758 234.215 C 137.682 234.219,146.268 234.314,146.435 234.487 C 146.577 234.634,146.748 234.993,146.816 235.286 C 146.884 235.579,146.903 235.352,146.859 234.782 C 146.744 233.305,148.336 233.392,122.442 233.455 C 94.513 233.522,95.355 233.579,93.156 231.483 C 90.880 229.315,90.528 223.939,92.286 218.188 C 92.501 217.485,92.803 215.485,92.957 213.742 C 93.112 211.999,93.462 209.603,93.736 208.416 C 94.010 207.229,94.313 205.360,94.410 204.261 C 94.507 203.162,94.814 201.353,95.091 200.240 C 95.369 199.127,95.717 196.850,95.864 195.180 C 96.011 193.510,96.306 191.473,96.520 190.654 C 96.734 189.835,97.094 187.678,97.321 185.861 C 97.548 184.043,97.906 181.838,98.118 180.959 C 98.329 180.080,98.632 178.222,98.791 176.831 C 98.949 175.439,99.306 173.222,99.584 171.904 C 99.861 170.586,100.219 168.189,100.379 166.578 C 100.540 164.967,100.848 162.989,101.065 162.184 C 101.282 161.378,101.577 159.521,101.720 158.056 C 101.864 156.591,102.167 154.688,102.394 153.827 C 102.621 152.966,102.923 151.109,103.065 149.699 C 103.408 146.278,103.571 145.247,104.011 143.715 C 104.215 143.004,104.509 141.146,104.665 139.587 C 104.820 138.027,105.120 136.092,105.331 135.286 C 105.541 134.481,105.891 132.204,106.107 130.226 C 106.324 128.249,106.669 126.152,106.875 125.566 C 107.081 124.980,107.398 122.883,107.579 120.905 C 107.761 118.928,108.082 116.895,108.292 116.387 C 108.503 115.880,108.798 114.202,108.946 112.659 C 109.095 111.116,109.387 109.166,109.595 108.326 C 109.803 107.486,110.111 105.448,110.279 103.799 C 110.447 102.149,110.869 99.584,111.218 98.100 C 111.566 96.615,111.851 94.786,111.851 94.036 C 111.851 93.285,112.097 91.564,112.399 90.211 C 112.700 88.858,113.121 86.263,113.334 84.444 C 113.546 82.626,113.899 80.537,114.117 79.804 C 114.334 79.070,114.637 77.152,114.789 75.543 C 114.941 73.933,115.288 71.587,115.560 70.329 C 115.833 69.072,116.139 67.144,116.240 66.046 C 116.341 64.948,116.646 62.970,116.918 61.652 C 117.190 60.333,117.546 58.024,117.708 56.521 C 117.871 55.018,118.178 53.221,118.391 52.527 C 118.605 51.833,118.899 50.067,119.046 48.602 C 119.192 47.137,119.545 44.740,119.829 43.276 C 120.113 41.811,120.476 39.474,120.637 38.083 C 120.797 36.691,121.103 34.963,121.316 34.241 C 121.529 33.520,121.833 31.543,121.991 29.847 C 122.150 28.152,122.504 25.746,122.778 24.501 C 123.052 23.256,123.400 21.039,123.551 19.574 C 123.702 18.109,124.068 16.072,124.363 15.047 C 124.658 14.023,124.900 12.970,124.900 12.709 C 124.900 12.235,125.368 11.119,126.097 9.854 C 126.829 8.583,129.777 6.123,131.025 5.742 C 131.684 5.540,132.669 5.185,133.214 4.951 C 134.673 4.326,220.448 4.307,226.232 4.930 C 228.282 5.151,231.518 5.448,233.422 5.590 C 236.807 5.843,243.084 6.837,246.138 7.605 C 246.981 7.816,248.419 8.173,249.334 8.397 C 250.250 8.621,251.538 8.990,252.197 9.217 C 252.856 9.445,254.017 9.788,254.776 9.980 C 256.151 10.329,258.136 11.170,260.492 12.402 C 261.173 12.758,261.906 13.049,262.121 13.049 C 262.335 13.049,262.822 13.293,263.201 13.591 C 263.580 13.890,264.285 14.268,264.768 14.433 C 265.251 14.598,265.985 15.013,266.399 15.355 C 266.813 15.698,267.265 15.979,267.404 15.979 C 267.677 15.979,269.843 17.421,270.706 18.177 C 270.999 18.434,271.957 19.272,272.834 20.041 C 276.201 22.988,279.422 26.591,281.024 29.202 C 281.280 29.619,281.848 30.499,282.286 31.158 C 282.725 31.818,283.333 32.896,283.638 33.555 C 283.943 34.214,284.353 34.933,284.548 35.153 C 284.744 35.373,285.045 36.081,285.217 36.727 C 285.389 37.373,285.694 38.152,285.895 38.459 C 286.096 38.766,286.434 39.736,286.645 40.614 C 286.856 41.492,287.228 42.673,287.472 43.239 C 287.901 44.234,288.408 47.743,288.960 53.529 C 289.181 55.846,289.125 57.475,288.630 63.037 L 288.033 69.748 288.666 70.422 C 289.014 70.793,289.549 71.172,289.856 71.265 C 290.162 71.358,290.631 71.626,290.897 71.860 C 291.163 72.094,291.778 72.529,292.264 72.827 C 296.042 75.144,299.371 78.418,302.033 82.436 C 303.318 84.375,304.128 85.259,304.128 84.722 C 304.128 84.559,303.888 84.276,303.595 84.093 C 303.302 83.910,303.063 83.620,303.063 83.450 C 303.063 83.279,302.673 82.656,302.197 82.065 C 301.721 81.474,301.032 80.551,300.666 80.014 C 299.904 78.898,296.572 75.366,296.280 75.366 C 296.173 75.366,295.744 75.037,295.327 74.634 C 293.967 73.322,293.442 72.928,292.565 72.562 C 292.090 72.364,291.541 72.008,291.345 71.771 C 291.148 71.534,290.598 71.178,290.122 70.979 C 288.275 70.207,288.198 69.679,289.229 64.847 C 289.728 62.508,289.651 49.891,289.129 48.441 C 288.886 47.767,288.559 46.269,288.402 45.113 C 288.245 43.956,287.899 42.586,287.635 42.069 C 287.370 41.551,287.013 40.478,286.843 39.683 C 286.672 38.888,286.371 38.053,286.174 37.827 C 285.976 37.601,285.621 36.741,285.385 35.914 C 285.149 35.088,284.786 34.347,284.580 34.268 C 284.374 34.189,284.121 33.744,284.019 33.280 C 283.917 32.816,283.609 32.211,283.335 31.936 C 283.060 31.662,282.652 31.045,282.427 30.565 C 280.920 27.343,272.819 18.375,271.415 18.375 C 271.264 18.375,271.067 18.142,270.976 17.856 C 270.886 17.571,270.548 17.255,270.226 17.154 C 269.904 17.053,269.381 16.692,269.064 16.352 C 268.747 16.012,268.148 15.650,267.732 15.547 C 267.317 15.444,266.827 15.149,266.644 14.891 C 266.461 14.634,265.966 14.347,265.545 14.255 C 265.124 14.162,264.382 13.793,263.896 13.435 C 263.410 13.076,262.819 12.783,262.583 12.783 C 262.347 12.783,261.764 12.495,261.288 12.144 C 260.811 11.792,260.006 11.427,259.497 11.331 C 258.988 11.236,258.165 10.882,257.668 10.545 C 257.172 10.207,256.230 9.858,255.577 9.769 C 254.924 9.679,253.986 9.375,253.493 9.092 C 253.000 8.809,251.879 8.493,251.002 8.390 C 250.125 8.286,249.095 7.979,248.713 7.708 C 248.272 7.394,247.106 7.099,245.514 6.899 C 244.137 6.726,242.655 6.406,242.222 6.187 C 241.711 5.928,239.731 5.666,236.573 5.439 C 233.898 5.246,231.447 4.948,231.125 4.776 C 229.724 4.026,135.727 3.571,133.188 4.302 M304.276 85.864 C 304.359 86.292,304.646 86.920,304.913 87.260 C 305.181 87.600,305.473 88.269,305.563 88.746 C 305.772 89.848,307.058 92.412,307.056 91.723 C 307.056 91.442,306.823 90.831,306.539 90.366 C 306.256 89.900,305.942 89.087,305.843 88.559 C 305.744 88.031,305.394 87.202,305.064 86.716 C 304.735 86.231,304.389 85.666,304.295 85.460 C 304.201 85.255,304.193 85.437,304.276 85.864 M307.409 94.141 C 307.489 94.434,307.748 95.153,307.984 95.739 L 308.413 96.804 308.285 95.809 C 308.215 95.261,307.956 94.542,307.710 94.211 C 307.310 93.672,307.278 93.664,307.409 94.141 M308.569 98.802 C 308.638 99.900,308.865 101.600,309.074 102.580 C 309.537 104.756,309.591 111.109,309.180 115.180 C 308.871 118.247,308.616 122.149,308.815 120.772 C 308.879 120.333,309.101 119.314,309.310 118.509 C 309.947 116.051,309.966 103.874,309.337 101.198 C 309.113 100.246,308.820 98.868,308.687 98.136 C 308.469 96.942,308.457 97.011,308.569 98.802 M308.435 122.675 C 308.410 123.282,308.157 124.540,307.875 125.471 C 307.592 126.402,307.292 127.763,307.210 128.495 C 307.113 129.348,307.349 128.725,307.864 126.764 C 308.334 124.977,308.631 123.258,308.576 122.636 L 308.482 121.571 308.435 122.675 M306.791 131.125 C 306.791 131.472,306.561 132.281,306.280 132.922 C 305.999 133.563,305.683 134.677,305.578 135.398 C 305.472 136.119,305.102 137.405,304.757 138.256 C 304.411 139.107,304.128 140.049,304.128 140.350 C 304.128 140.650,303.828 141.488,303.462 142.210 C 302.657 143.799,302.564 144.633,303.357 143.153 C 304.132 141.708,305.154 138.711,305.632 136.485 C 305.852 135.459,306.204 134.241,306.414 133.777 C 306.836 132.844,307.227 130.493,306.960 130.493 C 306.867 130.493,306.791 130.777,306.791 131.125 M301.762 146.542 C 301.452 147.181,301.198 147.950,301.198 148.251 C 301.198 148.551,300.953 149.109,300.652 149.491 C 300.352 149.873,299.925 150.716,299.704 151.364 C 299.483 152.012,299.070 152.753,298.786 153.010 C 298.502 153.268,298.269 153.622,298.269 153.799 C 298.269 153.976,297.969 154.562,297.603 155.101 C 297.237 155.641,296.937 156.146,296.937 156.224 C 296.937 156.567,298.216 154.794,298.402 154.194 C 298.515 153.828,298.881 153.202,299.215 152.803 C 299.549 152.403,299.899 151.727,299.993 151.299 C 300.086 150.871,300.394 150.313,300.676 150.058 C 300.957 149.803,301.266 149.161,301.362 148.632 C 301.458 148.103,301.769 147.209,302.052 146.645 C 302.335 146.082,302.513 145.566,302.446 145.500 C 302.379 145.433,302.071 145.902,301.762 146.542 M296.005 157.954 C 295.566 158.697,294.937 159.641,294.607 160.051 C 294.278 160.461,294.008 160.867,294.008 160.953 C 294.008 162.237,284.387 172.348,280.594 175.051 C 279.734 175.664,278.655 176.478,278.197 176.861 C 277.738 177.243,277.004 177.757,276.565 178.003 C 276.125 178.249,275.286 178.741,274.700 179.097 C 274.115 179.452,273.036 180.055,272.304 180.437 C 269.618 181.835,269.019 182.225,269.833 182.045 C 270.232 181.956,270.998 181.586,271.535 181.222 C 272.072 180.857,272.659 180.559,272.841 180.559 C 273.022 180.559,273.324 180.375,273.511 180.149 C 273.698 179.924,274.431 179.490,275.141 179.185 C 275.851 178.879,276.431 178.547,276.431 178.445 C 276.431 178.344,276.851 178.061,277.364 177.817 C 277.876 177.572,278.296 177.253,278.296 177.108 C 278.296 176.963,278.685 176.644,279.161 176.398 C 279.980 175.976,283.990 172.740,285.532 171.257 C 285.924 170.881,286.376 170.453,286.537 170.306 C 287.135 169.762,289.899 166.733,290.413 166.059 C 291.087 165.174,292.661 163.273,293.293 162.581 C 293.987 161.820,295.012 160.296,295.350 159.521 C 295.510 159.154,295.859 158.615,296.126 158.322 C 296.552 157.853,297.114 156.583,296.889 156.596 C 296.842 156.599,296.445 157.210,296.005 157.954 M267.879 182.650 C 267.529 182.921,267.064 183.211,266.844 183.295 C 266.498 183.426,266.500 183.449,266.859 183.468 C 267.087 183.479,267.679 183.189,268.176 182.823 C 268.672 182.457,268.951 182.157,268.796 182.157 C 268.641 182.157,268.228 182.379,267.879 182.650 M264.580 184.056 C 263.997 184.368,262.921 184.836,262.187 185.096 C 259.506 186.047,258.724 186.395,259.254 186.401 C 259.547 186.404,260.279 186.183,260.881 185.909 C 261.483 185.636,262.646 185.218,263.464 184.980 C 264.283 184.742,265.031 184.420,265.127 184.265 C 265.223 184.111,265.558 183.880,265.873 183.753 C 266.224 183.611,266.289 183.516,266.041 183.506 C 265.819 183.496,265.162 183.744,264.580 184.056 M256.709 186.671 C 256.334 186.784,255.771 187.015,255.457 187.183 C 255.143 187.350,253.533 187.728,251.877 188.022 C 250.222 188.315,248.209 188.728,247.403 188.939 L 245.939 189.323 247.670 189.181 C 248.622 189.103,250.180 188.819,251.132 188.549 C 252.084 188.280,253.511 187.983,254.303 187.890 C 255.095 187.797,256.113 187.518,256.566 187.270 C 257.019 187.022,257.630 186.741,257.923 186.645 L 258.455 186.471 257.923 186.468 C 257.630 186.466,257.084 186.557,256.709 186.671 M243.342 189.535 C 243.672 189.599,244.211 189.599,244.541 189.535 C 244.870 189.472,244.601 189.420,243.941 189.420 C 243.282 189.420,243.013 189.472,243.342 189.535 M239.893 189.756 C 239.490 190.159,234.607 190.477,226.365 190.635 L 217.177 190.812 216.117 191.545 C 215.533 191.947,214.934 192.282,214.785 192.288 C 214.636 192.294,214.035 192.728,213.449 193.252 C 212.427 194.166,212.418 194.188,213.232 193.776 C 213.699 193.539,214.153 193.228,214.242 193.084 C 214.331 192.941,215.268 192.415,216.323 191.917 L 218.242 191.012 228.362 190.864 C 237.314 190.732,238.713 190.654,240.479 190.186 C 242.459 189.661,242.466 189.656,241.256 189.635 C 240.585 189.623,239.972 189.678,239.893 189.756 M211.834 195.175 C 210.900 196.361,209.880 199.681,209.739 201.997 C 209.620 203.955,209.629 204.007,209.851 202.632 C 210.249 200.159,211.437 196.270,212.043 195.450 C 212.761 194.479,212.575 194.235,211.834 195.175 M209.352 205.093 C 209.335 205.624,209.150 206.543,208.941 207.135 C 208.732 207.727,208.508 208.731,208.444 209.365 C 208.379 210.000,208.382 210.280,208.450 209.987 C 208.517 209.694,208.662 209.334,208.771 209.188 C 209.084 208.767,209.664 205.238,209.516 204.655 C 209.437 204.341,209.370 204.518,209.352 205.093 M207.987 213.116 C 207.986 213.738,207.740 215.266,207.441 216.511 C 207.141 217.756,206.847 219.554,206.788 220.506 L 206.681 222.237 206.917 220.595 C 207.047 219.692,207.334 218.603,207.556 218.174 C 207.960 217.393,208.488 211.984,208.161 211.984 C 208.066 211.984,207.989 212.493,207.987 213.116 M206.391 223.121 C 206.391 223.533,206.155 224.762,205.865 225.850 C 205.576 226.939,205.352 228.309,205.368 228.895 L 205.397 229.960 205.587 228.762 C 205.691 228.103,205.906 227.249,206.064 226.865 C 206.401 226.050,206.806 222.370,206.559 222.370 C 206.467 222.370,206.391 222.708,206.391 223.121 M205.110 231.856 C 205.083 232.606,204.827 233.949,204.542 234.840 C 204.257 235.732,203.964 237.515,203.889 238.803 C 203.760 241.036,203.765 241.065,203.997 239.414 C 204.131 238.462,204.491 236.754,204.797 235.618 C 205.157 234.282,205.319 233.014,205.257 232.023 L 205.161 230.493 205.110 231.856 M146.544 237.816 C 146.544 238.475,146.596 238.745,146.659 238.415 C 146.723 238.086,146.723 237.547,146.659 237.217 C 146.596 236.887,146.544 237.157,146.544 237.816 M145.879 240.393 C 145.634 241.099,145.301 243.214,145.140 245.092 C 144.978 246.970,144.749 248.768,144.630 249.087 C 144.511 249.406,144.340 250.266,144.249 250.999 L 144.085 252.330 144.489 251.265 C 144.712 250.679,145.075 248.522,145.297 246.471 C 145.519 244.421,145.887 242.063,146.115 241.233 C 146.643 239.312,146.469 238.692,145.879 240.393 M203.265 243.209 C 202.585 246.770,202.580 246.830,203.026 246.063 C 203.378 245.459,203.953 241.545,203.690 241.545 C 203.632 241.545,203.440 242.294,203.265 243.209 M202.459 247.670 C 202.459 248.182,202.513 248.392,202.580 248.136 C 202.647 247.879,202.647 247.460,202.580 247.204 C 202.513 246.947,202.459 247.157,202.459 247.670 M202.130 250.309 C 202.130 250.736,201.892 251.844,201.601 252.773 C 200.935 254.897,200.932 255.659,201.596 254.026 C 202.101 252.783,202.609 249.534,202.298 249.534 C 202.206 249.534,202.130 249.883,202.130 250.309 M143.875 253.395 C 143.878 253.981,143.933 254.190,143.997 253.858 C 144.060 253.527,144.058 253.048,143.991 252.793 C 143.925 252.539,143.872 252.810,143.875 253.395 M200.700 256.220 C 200.418 257.628,198.222 259.842,195.868 261.092 C 194.874 261.619,194.261 262.051,194.505 262.051 C 195.728 262.051,198.594 259.922,200.202 257.820 C 200.753 257.100,201.313 255.393,200.999 255.393 C 200.925 255.393,200.791 255.765,200.700 256.220 M143.839 258.101 C 143.797 259.074,146.660 261.965,147.881 262.183 C 148.351 262.267,158.742 262.301,170.972 262.258 L 193.209 262.181 170.543 262.116 L 147.878 262.051 146.772 261.176 C 145.448 260.128,144.188 258.645,144.004 257.918 C 143.900 257.507,143.863 257.548,143.839 258.101 " stroke="none" fill="#9c9cb4" fill-rule="evenodd"></path></g></svg>